HIERARCHY
ROOT hip
{
	OFFSET 0.000000 0.000000 0.000000
	CHANNELS 6 Xposition Yposition Zposition Xrotation Zrotation Yrotation 
	JOINT abdomen
	{
		OFFSET 0.000000 3.422050 0.000000
		CHANNELS 3 Xrotation Zrotation Yrotation 
		JOINT chest
		{
			OFFSET 0.000000 8.486693 -0.684411
			CHANNELS 3 Xrotation Zrotation Yrotation 
			JOINT neck
			{
				OFFSET 0.000000 10.266162 -0.273764
				CHANNELS 3 Xrotation Zrotation Yrotation 
				JOINT head
				{
					OFFSET 0.000000 3.148285 0.000000
					CHANNELS 3 Xrotation Zrotation Yrotation 
					End Site
					{
						OFFSET 0.000000 3.148289 0.000000
					}
				}
			}
			JOINT lCollar
			{
				OFFSET 3.422053 6.707223 -0.821293
				CHANNELS 3 Yrotation Zrotation Xrotation 
				JOINT lShldr
				{
					OFFSET 3.285171 0.000000 0.000000
					CHANNELS 3 Zrotation Yrotation Xrotation 
					JOINT lForeArm
					{
						OFFSET 10.129278 0.000000 0.000000
						CHANNELS 3 Yrotation Zrotation Xrotation 
						JOINT lHand
						{
							OFFSET 8.486692 0.000000 0.000000
							CHANNELS 3 Zrotation Yrotation Xrotation 
							End Site
							{
								OFFSET 4.106464 0.000000 0.000000
							}
						}
					}
				}
			}
			JOINT rCollar
			{
				OFFSET -3.558935 6.707223 -0.821293
				CHANNELS 3 Yrotation Zrotation Xrotation 
				JOINT rShldr
				{
					OFFSET -3.148289 0.000000 0.000000
					CHANNELS 3 Zrotation Yrotation Xrotation 
					JOINT rForeArm
					{
						OFFSET -10.266159 0.000000 0.000000
						CHANNELS 3 Yrotation Zrotation Xrotation 
						JOINT rHand
						{
							OFFSET -8.349810 0.000000 0.000000
							CHANNELS 3 Zrotation Yrotation Xrotation 
							End Site
							{
								OFFSET -4.106464 0.000000 0.000000
							}
						}
					}
				}
			}
		}
	}
	JOINT lThigh
	{
		OFFSET 5.338403 -1.642589 1.368821
		CHANNELS 3 Xrotation Zrotation Yrotation 
		JOINT lShin
		{
			OFFSET -2.053232 -20.121670 0.000000
			CHANNELS 3 Xrotation Zrotation Yrotation 
			JOINT lFoot
			{
				OFFSET 0.000000 -19.300380 -1.231939
				CHANNELS 3 Xrotation Yrotation Zrotation 
				End Site
				{
					OFFSET 0.000000 -2.463878 4.653993
				}
			}
		}
	}
	JOINT rThigh
	{
		OFFSET -5.338403 -1.642589 1.368821
		CHANNELS 3 Xrotation Zrotation Yrotation 
		JOINT rShin
		{
			OFFSET 2.053232 -20.121670 0.000000
			CHANNELS 3 Xrotation Zrotation Yrotation 
			JOINT rFoot
			{
				OFFSET 0.000000 -19.300380 -1.231939
				CHANNELS 3 Xrotation Yrotation Zrotation 
				End Site
				{
					OFFSET 0.000000 -2.463878 4.653993
				}
			}
		}
	}
}
MOTION
Frames: 11
Frame Time: 0.049897
6.978292 14.442574 9.538078 0.012387 -2.991333 -157.066360 15.906472 -2.440089 32.234177 36.594723 9.547375 -21.846674 -0.931309 6.504596 -0.168554 15.154213 18.837831 5.881512 -23.495407 -39.566330 -46.101192 3.631095 1.814403 7.333694 -0.579519 -0.799882 -0.795701 -15.545046 -6.309611 1.655651 19.187868 29.401110 5.316535 -14.783237 45.755665 12.252538 46.634743 -5.238321 3.072650 -50.641388 7.525253 -1.951808 -43.422825 49.128288 54.402946 158.010178 37.785915 -13.857416 51.196606 1.520566 22.073412 -43.413197 -49.138657 -54.424057 158.001038 -37.781788 13.856016 51.195869 -1.525182 -22.075113 
7.014938 14.447860 9.671444 0.012387 -2.991333 -157.066345 15.906472 -2.440089 32.234177 36.594723 9.547375 -21.846674 -1.176386 6.462930 -0.181319 14.833943 18.737108 5.791843 -23.168745 -39.196953 -45.417225 2.808029 1.565876 7.173310 -1.078918 -0.240454 -0.793413 -15.545046 -6.309611 1.655651 19.412834 29.251764 4.915948 -13.564489 45.510242 12.501749 46.270451 -5.474792 3.145237 -50.277821 7.379438 -1.888899 -43.758808 48.479332 53.991226 158.022552 37.648945 -13.760578 50.957882 1.197358 21.758909 -43.749615 -48.489643 -54.011719 158.013474 -37.644836 13.759149 50.957157 -1.201973 -21.760616 
7.051584 14.453147 9.804809 0.012387 -2.991333 -157.066345 15.906472 -2.440089 32.234177 36.594723 9.547375 -21.846674 -1.421592 6.421180 -0.193912 14.513678 18.635803 5.702725 -22.848991 -38.824036 -44.738510 1.983492 1.314381 7.016104 -1.579353 0.320064 -0.786229 -15.545046 -6.309611 1.655651 19.636393 29.100994 4.516420 -12.347320 45.260086 12.743437 45.906059 -5.711884 3.216391 -49.914360 7.233154 -1.826913 -44.084167 47.827656 53.589661 158.034607 37.511948 -13.663946 50.717194 0.875166 21.442802 -44.075397 -47.837902 -53.609539 158.025589 -37.507843 13.662479 50.716480 -0.879782 -21.444515 
7.088229 14.458434 9.938174 0.012387 -2.991333 -157.066345 15.906472 -2.440089 32.234177 36.594723 9.547375 -21.846674 -1.666926 6.379351 -0.206331 14.193422 18.533911 5.614163 -22.536110 -38.447666 -44.065022 1.157553 1.059978 6.862149 -2.080880 0.881584 -0.774120 -15.545046 -6.309611 1.655651 19.858517 28.948780 4.117956 -11.131973 45.005314 12.977437 45.541573 -5.949583 3.286104 -49.550983 7.086406 -1.765851 -44.399303 47.173386 53.197853 158.046326 37.374920 -13.567520 50.474537 0.554024 21.125080 -44.390949 -47.183567 -53.217133 158.037415 -37.370834 13.566022 50.473824 -0.558637 -21.126795 
7.124875 14.463720 10.071540 0.012387 -2.991333 -157.066345 15.906472 -2.440089 32.234177 36.594723 9.547375 -21.846674 -1.912386 6.337444 -0.218577 13.873178 18.431444 5.526161 -22.230078 -38.067928 -43.396725 0.330277 0.802734 6.711514 -2.583556 1.444018 -0.757056 -15.545046 -6.309611 1.655651 20.079208 28.795156 3.720568 -9.918674 44.746078 13.203626 45.176960 -6.187869 3.354368 -49.187691 6.939204 -1.705718 -44.704609 46.516621 52.815403 158.057785 37.237858 -13.471292 50.229897 0.233962 20.805744 -44.696621 -46.526722 -52.834118 158.048920 -37.233795 13.469765 50.229195 -0.238574 -20.807465 
7.161521 14.469007 10.204906 0.012387 -2.991333 -157.066345 15.906472 -2.440089 32.234177 36.594723 9.547375 -21.846674 -2.157969 6.295459 -0.230649 13.552956 18.328403 5.438725 -21.930840 -37.684902 -42.733559 -0.498265 0.542716 6.564267 -3.087439 2.007274 -0.735008 -15.545046 -6.309611 1.655651 20.298450 28.640125 3.324270 -8.707649 44.482498 13.421872 44.812263 -6.426729 3.421177 -48.824516 6.791561 -1.646518 -45.000431 45.857479 52.441975 158.068909 37.100780 -13.375271 49.983280 -0.084988 20.484779 -44.992821 -45.867508 -52.460133 158.060120 -37.096737 13.373711 49.982590 0.080378 -20.486507 
7.198167 14.474295 10.338271 0.012387 -2.991333 -157.066345 15.906472 -2.440089 32.234177 36.594723 9.547375 -21.846674 -2.403675 6.253397 -0.242545 13.232753 18.224789 5.351857 -21.638371 -37.298706 -42.075500 -1.328008 0.279993 6.420476 -3.592585 2.571263 -0.707943 -15.545046 -6.309611 1.655651 20.516235 28.483707 2.929066 -7.499113 44.214725 13.632063 44.447445 -6.666148 3.486523 -48.461433 6.643481 -1.588254 -45.287113 45.196049 52.077198 158.079712 36.963669 -13.279445 49.734676 -0.402797 20.162189 -45.279858 -45.206001 -52.094803 158.070999 -36.959641 13.277852 49.733997 0.398186 -20.163919 
7.234813 14.479581 10.471636 0.012387 -2.991333 -157.066360 15.906472 -2.440089 32.234177 36.594723 9.547375 -21.846674 -2.649500 6.211259 -0.254266 12.912584 18.120617 5.265565 -21.352617 -36.909405 -41.422485 -2.158884 0.014637 6.280204 -4.099055 3.135892 -0.675832 -15.545046 -6.309611 1.655651 20.732555 28.325911 2.534967 -6.293272 43.942905 13.834096 44.082535 -6.906106 3.550400 -48.098457 6.494976 -1.530929 -45.564991 44.532448 51.720753 158.090240 36.826534 -13.183815 49.484081 -0.719427 19.837961 -45.558075 -44.542316 -51.737835 158.081589 -36.822517 13.182190 49.483425 0.714820 -19.839705 
7.271459 14.484868 10.605001 0.012387 -2.991333 -157.066345 15.906472 -2.440089 32.234177 36.594723 9.547375 -21.846674 -2.895442 6.169047 -0.265811 12.592447 18.015879 5.179851 -21.073540 -36.517090 -40.774475 -2.990829 -0.253278 6.143519 -4.606907 3.701066 -0.638641 -15.545046 -6.309611 1.655651 20.947401 28.166752 2.141985 -5.090332 43.667175 14.027869 43.717514 -7.146591 3.612802 -47.735596 6.346053 -1.474546 -45.834366 43.866753 51.372303 158.100433 36.689384 -13.088386 49.231522 -1.034851 19.512108 -45.827778 -43.876530 -51.388859 158.091873 -36.685387 13.086730 49.230865 1.030244 -19.513851 
7.308105 14.490155 10.738367 0.012387 -2.991333 -157.066345 15.906472 -2.440089 32.234177 36.594723 9.547375 -21.846674 -3.141502 6.126761 -0.277180 12.272343 17.910578 5.094718 -20.801100 -36.121876 -40.131424 -3.823773 -0.523675 6.010478 -5.116199 4.266694 -0.596340 -15.545046 -6.309611 1.655651 21.160761 28.006245 1.750128 -3.890490 43.387722 14.213312 43.352375 -7.387583 3.673719 -47.372849 6.196723 -1.419108 -46.095566 43.199093 51.031567 158.110352 36.552208 -12.993146 48.976959 -1.349033 19.184601 -46.089275 -43.208786 -51.047634 158.101852 -36.548218 12.991458 48.976315 1.344430 -19.186357 
7.344750 14.495441 10.871733 0.012387 -2.991333 -157.066345 15.906472 -2.440089 32.234177 36.594723 9.547375 -21.846674 -3.387673 6.084403 -0.288371 11.952280 17.804726 5.010174 -20.535219 -35.723804 -39.493252 -4.657652 -0.796476 5.881144 -5.626993 4.832679 -0.548894 -15.545046 -6.309611 1.655651 21.372622 27.844393 1.359400 -2.693938 43.104694 14.390347 42.987122 -7.629064 3.733146 -47.010235 6.046998 -1.364620 -46.348831 42.529541 50.698246 158.119965 36.415009 -12.898100 48.720417 -1.661947 18.855461 -46.342831 -42.539127 -50.713802 158.111526 -36.411037 12.896383 48.719776 1.657344 -18.857216 
